HIERARCHY
ROOT Hips
{
	OFFSET -14.64140 90.27770 -84.91600
	CHANNELS 6 Xposition Yposition Zposition Zrotation Xrotation Yrotation
	JOINT Spine
	{
		OFFSET 0.00000 13.20850 -1.60436
		CHANNELS 3 Zrotation Xrotation Yrotation
		JOINT Spine1
		{
			OFFSET 0.00000 8.61716 0.00000
			CHANNELS 3 Zrotation Xrotation Yrotation
			JOINT Spine2
			{
				OFFSET 0.00000 8.61717 0.00000
				CHANNELS 3 Zrotation Xrotation Yrotation
				JOINT Spine3
				{
					OFFSET 0.00000 8.61717 0.00000
					CHANNELS 3 Zrotation Xrotation Yrotation
					JOINT Neck
					{
						OFFSET 0.00000 11.07920 1.10792
						CHANNELS 3 Zrotation Xrotation Yrotation
						JOINT Neck1
						{
							OFFSET 0.00000 7.08032 0.00000
							CHANNELS 3 Zrotation Xrotation Yrotation
							JOINT Head
							{
								OFFSET 0.00000 7.08031 0.00000
								CHANNELS 3 Zrotation Xrotation Yrotation
								End site
								{
									OFFSET 0.00000 0.00000 0.00000
								}
							}
						}
					}
					JOINT RightShoulder
					{
						OFFSET -0.01000 7.91373 5.19711
						CHANNELS 3 Zrotation Xrotation Yrotation
						JOINT RightArm
						{
							OFFSET -18.41580 0.00000 0.00000
							CHANNELS 3 Zrotation Xrotation Yrotation
							JOINT RightForeArm
							{
								OFFSET -29.11090 0.00000 0.00000
								CHANNELS 3 Zrotation Xrotation Yrotation
								JOINT RightHand
								{
									OFFSET -24.65040 0.00000 0.00000
									CHANNELS 3 Zrotation Xrotation Yrotation
									JOINT RightHandThumb1
									{
										OFFSET -5.35114 -0.85590 3.97906
										CHANNELS 3 Zrotation Xrotation Yrotation
										JOINT RightHandThumb2
										{
											OFFSET -4.52789 0.00000 0.00000
											CHANNELS 3 Zrotation Xrotation Yrotation
											JOINT RightHandThumb3
											{
												OFFSET -2.46976 0.00000 0.00000
												CHANNELS 3 Zrotation Xrotation Yrotation
												End site
												{
													OFFSET 0.00000 0.00000 0.00000
												}
											}
										}
									}
									JOINT RightHandIndex1
									{
										OFFSET -14.26970 0.00000 2.88139
										CHANNELS 3 Zrotation Xrotation Yrotation
										JOINT RightHandIndex2
										{
											OFFSET -5.48836 0.00000 0.00000
											CHANNELS 3 Zrotation Xrotation Yrotation
											JOINT RightHandIndex3
											{
												OFFSET -3.01859 0.00000 0.00000
												CHANNELS 3 Zrotation Xrotation Yrotation
												End site
												{
													OFFSET 0.00000 0.00000 0.00000
												}
											}
										}
									}
									JOINT RightHandMiddle1
									{
										OFFSET -14.26970 0.00000 -0.09147
										CHANNELS 3 Zrotation Xrotation Yrotation
										JOINT RightHandMiddle2
										{
											OFFSET -6.17441 0.00000 0.00000
											CHANNELS 3 Zrotation Xrotation Yrotation
											JOINT RightHandMiddle3
											{
												OFFSET -3.56743 0.00000 0.00000
												CHANNELS 3 Zrotation Xrotation Yrotation
												End site
												{
													OFFSET 0.00000 0.00000 0.00000
												}
											}
										}
									}
									JOINT RightHandRing1
									{
										OFFSET -12.69180 0.00000 -3.06433
										CHANNELS 3 Zrotation Xrotation Yrotation
										JOINT RightHandRing2
										{
											OFFSET -5.62556 0.00000 0.00000
											CHANNELS 3 Zrotation Xrotation Yrotation
											JOINT RightHandRing3
											{
												OFFSET -3.56744 0.00000 0.00000
												CHANNELS 3 Zrotation Xrotation Yrotation
												End site
												{
													OFFSET 0.00000 0.00000 0.00000
												}
											}
										}
									}
									JOINT RightHandPinky1
									{
										OFFSET -11.11390 0.00000 -6.03719
										CHANNELS 3 Zrotation Xrotation Yrotation
										JOINT RightHandPinky2
										{
											OFFSET -4.52789 0.00000 0.00000
											CHANNELS 3 Zrotation Xrotation Yrotation
											JOINT RightHandPinky3
											{
												OFFSET -2.46976 0.00000 0.00000
												CHANNELS 3 Zrotation Xrotation Yrotation
												End site
												{
													OFFSET 0.00000 0.00000 0.00000
												}
											}
										}
									}
								}
							}
						}
					}
					JOINT LeftShoulder
					{
						OFFSET 0.01000 7.91373 5.19711
						CHANNELS 3 Zrotation Xrotation Yrotation
						JOINT LeftArm
						{
							OFFSET 18.41580 0.00000 0.00000
							CHANNELS 3 Zrotation Xrotation Yrotation
							JOINT LeftForeArm
							{
								OFFSET 29.11090 0.00000 0.00000
								CHANNELS 3 Zrotation Xrotation Yrotation
								JOINT LeftHand
								{
									OFFSET 24.65040 0.00000 0.00000
									CHANNELS 3 Zrotation Xrotation Yrotation
									JOINT LeftHandThumb1
									{
										OFFSET 5.35114 -0.85590 3.97906
										CHANNELS 3 Zrotation Xrotation Yrotation
										JOINT LeftHandThumb2
										{
											OFFSET 4.52789 0.00000 0.00000
											CHANNELS 3 Zrotation Xrotation Yrotation
											JOINT LeftHandThumb3
											{
												OFFSET 2.46977 0.00000 0.00000
												CHANNELS 3 Zrotation Xrotation Yrotation
												End site
												{
													OFFSET 0.00000 0.00000 0.00000
												}
											}
										}
									}
									JOINT LeftHandIndex1
									{
										OFFSET 14.26970 0.00000 2.88139
										CHANNELS 3 Zrotation Xrotation Yrotation
										JOINT LeftHandIndex2
										{
											OFFSET 5.48836 0.00000 0.00000
											CHANNELS 3 Zrotation Xrotation Yrotation
											JOINT LeftHandIndex3
											{
												OFFSET 3.01859 0.00000 0.00000
												CHANNELS 3 Zrotation Xrotation Yrotation
												End site
												{
													OFFSET 0.00000 0.00000 0.00000
												}
											}
										}
									}
									JOINT LeftHandMiddle1
									{
										OFFSET 14.26970 0.00000 -0.09147
										CHANNELS 3 Zrotation Xrotation Yrotation
										JOINT LeftHandMiddle2
										{
											OFFSET 6.17440 0.00000 0.00000
											CHANNELS 3 Zrotation Xrotation Yrotation
											JOINT LeftHandMiddle3
											{
												OFFSET 3.56744 0.00000 0.00000
												CHANNELS 3 Zrotation Xrotation Yrotation
												End site
												{
													OFFSET 0.00000 0.00000 0.00000
												}
											}
										}
									}
									JOINT LeftHandRing1
									{
										OFFSET 12.69180 0.00000 -3.06433
										CHANNELS 3 Zrotation Xrotation Yrotation
										JOINT LeftHandRing2
										{
											OFFSET 5.62556 0.00000 0.00000
											CHANNELS 3 Zrotation Xrotation Yrotation
											JOINT LeftHandRing3
											{
												OFFSET 3.56744 0.00000 0.00000
												CHANNELS 3 Zrotation Xrotation Yrotation
												End site
												{
													OFFSET 0.00000 0.00000 0.00000
												}
											}
										}
									}
									JOINT LeftHandPinky1
									{
										OFFSET 11.11390 0.00000 -6.03719
										CHANNELS 3 Zrotation Xrotation Yrotation
										JOINT LeftHandPinky2
										{
											OFFSET 4.52789 0.00000 0.00000
											CHANNELS 3 Zrotation Xrotation Yrotation
											JOINT LeftHandPinky3
											{
												OFFSET 2.46976 0.00000 0.00000
												CHANNELS 3 Zrotation Xrotation Yrotation
												End site
												{
													OFFSET 0.00000 0.00000 0.00000
												}
											}
										}
									}
								}
							}
						}
					}
					JOINT pCube4
					{
						OFFSET 0.00000 10.91090 1.10792
						CHANNELS 3 Zrotation Xrotation Yrotation
						End site
						{
							OFFSET 0.00000 0.00000 0.00000
						}
					}
				}
			}
		}
	}
	JOINT RightUpLeg
	{
		OFFSET -9.98441 0.00000 0.00000
		CHANNELS 3 Zrotation Xrotation Yrotation
		JOINT RightLeg
		{
			OFFSET 0.00000 -42.11790 0.00000
			CHANNELS 3 Zrotation Xrotation Yrotation
			JOINT RightFoot
			{
				OFFSET 0.00000 -45.00020 -0.00001
				CHANNELS 3 Zrotation Xrotation Yrotation
				JOINT RightForeFoot
				{
					OFFSET 0.00000 -3.74820 0.00000
					CHANNELS 3 Zrotation Xrotation Yrotation
					JOINT RightToeBase
					{
						OFFSET 0.00000 0.06325 14.43120
						CHANNELS 3 Zrotation Xrotation Yrotation
						End site
						{
							OFFSET 0.00000 0.00000 0.00000
						}
					}
				}
			}
		}
	}
	JOINT LeftUpLeg
	{
		OFFSET 9.98441 0.00000 0.00000
		CHANNELS 3 Zrotation Xrotation Yrotation
		JOINT LeftLeg
		{
			OFFSET 0.00000 -42.11800 0.00000
			CHANNELS 3 Zrotation Xrotation Yrotation
			JOINT LeftFoot
			{
				OFFSET 0.00000 -45.00070 0.00000
				CHANNELS 3 Zrotation Xrotation Yrotation
				JOINT LeftForeFoot
				{
					OFFSET 0.00000 -3.74824 0.00000
					CHANNELS 3 Zrotation Xrotation Yrotation
					JOINT LeftToeBase
					{
						OFFSET 0.00000 0.06325 14.43110
						CHANNELS 3 Zrotation Xrotation Yrotation
						End site
						{
							OFFSET 0.00000 0.00000 0.00000
						}
					}
				}
			}
		}
	}
}
MOTION
Frames: 4
Frame Time: 0.050000
-0.037760632183899176 0.029291960739070557 0.02158147898914196 0.002542400927841841 0.015601035795776328 -0.03991620531618496 -2.6428323154079574 0.9750708942887473 -0.7978976753395985 -1.0579431589113888 3.858653186283696 0.4263843398307019 -1.2094775703793261 -1.7114294556840333 -0.5709447544957013 0.14019813525395475 0.5152027328724575 -0.7611467421371556 0.02044492424623289 12.750697826473814 -0.3737230271463499 0.052821315919622004 -0.3926495370539053 -2.874527136713317 0.3515538315664274 -15.595530205418049 -0.1863739391502023 -4.5184357092555505 1.581450804520725 -13.955746751999042 67.90360330938873 21.875131276975317 9.699024006272696 5.43478603104049 2.036896667465028 70.03090019276954 15.528764695047943 -0.2135981266541713 -2.308251342260627 4.563861488702732 -0.12878258121313396 -1.6235088639787 -0.04580945143665572 -0.015363345163424127 -56.249567774083104 0.02261949451293438 0.017307553379368686 -56.240068217947986 -38.800278575133405 -0.01550610960509557 0.012939897815936428 -0.046827707632568966 -0.013341926944985885 0.008785536945189618 0.02157689945743102 0.04799360511501412 -0.03423655485594424 -36.6543429240499 0.04545951884630038 0.0034339933836938976 -0.004184493294856584 -0.020389248280707636 0.0021091445969518012 -0.01136313896102416 -0.03717621190582237 0.03364468019638795 -19.76487766406436 0.03514267840050539 -0.020961954006111852 0.015600976004324437 0.009905960707246676 0.021662758691865177 0.016714270424713212 -0.0402268026857372 0.019983222714688893 24.03545930205312 0.037971416641545706 -0.0072244667289493684 28.87376200668879 -0.023937476905484565 0.004092483580959273 28.874257117850384 -0.0024350412777071643 -0.028795211158886173 5.246214072162142 1.2380963569301922 12.780836370106899 -67.64151299814847 30.7675416432803 -9.620148568294669 -13.412491780393758 0.6231804480991757 -69.74706549983009 -9.12335086380929 -0.13078109752117675 1.560179143569509 -0.4381687215647541 0.05990376734065852 -8.127537713279466 -0.047846847686371666 -0.008206873544375938 44.57201929218843 0.008399834515891384 -0.039778798947995596 44.54945817680495 12.481006288820229 0.012575468664235184 0.012222594791067475 -0.009105537874090103 -0.0007885002327082293 -0.020569906659959235 -0.01381486876328747 0.03797785741872092 -0.04832744662180708 11.119715852602537 0.010290417068286007 -0.002192971643409816 0.01613469848785095 -0.04782332246726968 0.020448056444897902 0.027353917787680856 0.040026716404224526 0.0373238565250174 4.813759713586561 -0.020992246250554607 -0.009362285778709376 -0.048324120311017134 -0.03392607311330705 0.037042074095612866 0.01958890882186264 -0.009348835053357393 9.621269515677574e-05 -5.552984584150571 -0.024598174826426338 -0.04658107107942809 -6.718941070778091 -0.003968980374818248 -0.03276113327311677 -6.719667533417288 -0.01624716430416419 -0.04972473223038271 -0.004793542102604495 -0.04527483810826967 0.04744493227883273 8.0023127417922 3.5355515247577642 -19.234935385811944 -0.011928881633266912 10.407518668204458 -0.023058682426950413 -5.573806412642012 -15.682951632718698 3.1900849270191074 -0.014741999932151773 0.035809806106015654 -0.03128969830621485 -0.019084738244768154 4.716686511619067 0.005150278768162052 12.460950193523546 -8.205282572062712 6.895660419071281 -0.04788367052127072 46.350196934769535 -0.0034880959863017166 -4.310992459822442 -14.721769307988053 -3.8372476622444527 -0.02393897307403966 -0.031673390655791396 0.026431796816988623 -0.02377845990679294 -10.723762686916013 -0.017480098494782253 
-0.02073698638845635 -0.0357838657291069 -0.014015914733869907 0.04339827933949644 0.02719714274296649 0.031546287759197 -2.7528982411485208 1.029741326034101 -0.7809264210782226 -1.0584594630830777 3.816682149056423 0.42243297534257007 -1.2204462380510264 -1.7093507815159366 -0.6074049153697908 0.05319284744607588 0.4564010060215851 -0.7437441392645183 0.013119268791034921 12.661779457028985 -0.21875256872028792 0.04594085088109207 -0.35330650767567284 -2.6796476518422883 0.35520409485722815 -15.620350085695316 -0.17809701326338792 -4.453309536892724 1.6117716895780945 -13.974715899552415 67.67755348378128 21.83027568106023 9.433786831819283 4.053100981662993 1.8479817246339696 71.20327104974393 15.857013308428545 -0.30260259254581 -2.4070033558292914 4.504755485112797 -0.1351637171526107 -1.58751446846548 0.048695887985910055 -0.013295497989474658 -56.26715626139334 -0.01655015394239821 0.023542555242326145 -56.21082802838855 -38.7815505716443 -0.02603937811100859 -0.027935783518169187 -0.04549534972254456 -0.03789523472277001 -0.005000399099637844 -0.024056885321947833 0.013255898052590146 -0.0006313618601768563 -36.689240657599505 -0.005377017839935539 0.012715040327802383 0.007462817709634621 0.004371706923412777 0.0346678553006691 -0.03641620214763309 -0.00659201469347301 0.00905214726466297 -19.768518731728744 0.013398455247165694 0.037490127914314636 -0.003986614811718866 0.0324724823736757 0.0009167976967492351 0.04501860424108959 -0.020188852255221237 -0.011106089207636822 24.018220641393643 0.031120540507256426 -0.02485791700572595 28.82689557294212 -0.03492731224591745 -0.04640751498192007 28.88508248793821 0.04813866877978504 -0.016420167913098686 5.214226561564178 1.2413361321265035 12.825634117182524 -67.49088427580145 30.662573723921813 -9.619903100842032 -11.879527230770535 -0.005122649102158837 -69.69737475448666 -9.127588174821907 0.017398645262767125 1.4988394923071289 -0.4912283583950054 0.0496263043735474 -8.139213907791255 0.007458822434075983 0.037683596636857906 44.573790848870914 0.011304960603670528 -0.01705618493637031 44.53870725235821 12.457675249538228 0.013683046772279965 0.027530174866030228 0.029859711489477636 0.04456246156789867 0.02708176325191067 0.03153816492725045 0.0024519777732531427 -0.0005438563879234075 11.109444672028701 -0.03520736294026666 0.028484664062478675 -0.0028327036999806557 -0.04691569901780207 -0.009839230885960414 -0.047389450829677326 0.018607854022756932 -0.024621494967407388 4.81619553460325 -0.014513062881606593 0.03425521616468954 0.0032051121434601175 -0.02020297119972918 -0.02232176243516863 0.03453307136652797 0.022470206959607567 0.015234354947006144 -5.592010867028226 -0.02595773236796458 0.036635275087836844 -6.692326155544994 -0.023520925597791943 0.025230974433722117 -6.673023681548528 -0.0018269207276034663 -0.011437400527231658 -0.006915344274941253 -0.014332895119755695 0.006288395621211731 8.071024844207493 3.4995309819709135 -19.22760289377176 0.04158092994082122 10.402795656838926 0.029433779445326283 -5.597668296726624 -15.64546245004862 3.163792909749573 0.03107479296861438 -0.03230537032000701 0.02349043524012389 -0.015702810900219237 4.695841466899902 -0.021191240264439623 12.46658270614669 -8.257787351555445 6.859234815734766 0.047485303304846904 46.36824290823458 0.009068257227848618 -4.301102317179305 -14.7500611575074 -3.7872134324734317 0.025365705939168173 -0.0005797162492541089 0.028214656560656925 0.015043998057274091 -10.756131420716073 -0.006076952869589198 
0.03233997917053025 0.02041979374698312 0.027985000703669796 -0.010506385889270482 -0.004682841811437001 -0.03578381546196605 -2.87377458755308 0.9664428420592379 -0.7757822656316932 -1.0533651620690976 3.7848263890363683 0.44859149239578205 -1.2946031370713882 -1.7459437422729356 -0.5304942207180369 -0.006205903425276792 0.47359321023592527 -0.7246172362260026 -0.05819968642986326 12.593918589657184 -0.0633203804679151 0.07471346560465822 -0.32509081324652694 -2.238116622993906 0.33817911432202075 -15.54959994848912 -0.17672055427539662 -4.563352455842518 1.6682298984306874 -13.997191262293141 67.3596742852597 21.981449842722412 9.338680146374735 2.1201669870843953 1.5739867683323385 71.9171170804658 16.17809755601175 -0.33496900217915127 -2.5796738059983415 4.538572668453386 -0.13460438784412002 -1.6046770937736825 0.030109943405535307 0.042372869216430575 -56.27674584159174 0.02582381455213882 0.021089136557631057 -56.275235016005105 -38.76070511707174 -0.021445654743407285 0.011675740993962068 0.01937297130662418 -0.002353025341057432 -0.003742155456857914 0.005838275898390755 -0.04639955521388139 -0.00018125777531652253 -36.67575650425245 0.025226585254954505 0.035682959479881426 -0.04381161254204322 0.011627375261105327 -0.04802357200809426 -0.017507330233826075 0.023930186779658302 -0.0340193208943947 -19.76708434579586 0.030890462475314785 -0.010280793196136558 0.02714647772853544 -0.045914444936897586 -0.023821611051177645 -0.014616079447731894 -0.010860949563665326 -0.04464851360360904 24.017130773483235 -0.030952929401683087 -0.007334079685220681 28.87583169566863 0.015093971374477788 0.02408050344149446 28.86463438321564 -0.046407856632063045 -0.02561611099187103 5.320637269450982 1.3198168405666328 12.79312490544434 -67.47983263393432 30.461747952585682 -9.49287959569681 -9.776158609470354 -0.9644284128309296 -68.59013060857329 -9.298702677250448 0.263424371242447 1.4425603235618305 -0.4860264576489567 0.04460541068363806 -8.146498225263862 -0.007887983585028454 -0.0285641901296309 44.522526776164945 0.045301118712343734 -0.010697868448719351 44.54061982994789 12.451872348913612 0.021640031688272818 0.04674942437342553 0.020099519644818313 -0.034145526629498324 0.0247526021509793 -0.012191753443441778 -0.04906393248796299 0.04340995142974744 11.104682841155837 -0.015269325502060982 -0.01730032450167891 -0.04954082689649736 0.040626798825739024 -0.03196272953323178 0.010149323848287128 -0.006775473537911012 0.002341974893752013 4.774702026929812 0.017558552141024718 0.03417367869863066 -0.02040008636500474 0.003213941826484854 0.013493398216403779 -0.0075352948750116245 0.04487605915958705 0.004947832698695408 -5.572416318804053 0.032228071502380974 0.0036909118436326107 -6.721260867812546 -0.00028513045115930244 -0.009799411447727476 -6.7059069194366865 0.035621960300458236 0.03668159229330572 0.02105026288545948 0.03372172822688872 0.047443663979638714 8.056325490499521 3.444481959278994 -19.176331196369013 0.0010679461607741659 10.38552842489144 -0.035388839301713576 -5.6029400076615135 -15.639734935391836 3.2367554666724163 0.04240444608804477 -0.009129748568966119 0.027703570202044392 0.025557885959897362 4.742305220785996 -0.045807717033281695 12.412097199939732 -8.21607852523411 6.932534197610228 -0.03384153874813769 46.42876792074074 0.006977672834679469 -4.364504586569602 -14.759336580572928 -3.8281997441410955 0.01742993897720198 -0.01547240364416067 0.03440573797762855 -0.001448058077832532 -10.729591838939973 0.037795214402178756 
0.03153091433317623 -0.03595405776284255 -0.004837181450962698 0.01923340098133998 -0.04539970922669379 -0.039696218997375896 -3.0550769623651868 0.8672576687217424 -0.7243297240353876 -1.043846580305689 3.7634285672541035 0.4477322095650421 -1.2983700445848134 -1.7127202856464487 -0.5169914930258097 -0.15239405659044206 0.4861342386976944 -0.7141312997063503 -0.06567337627018041 12.644142420951725 0.15069228541830348 0.1618454611393854 -0.29509865089985027 -1.9277124938006227 0.2652060741608186 -15.478403644639544 -0.16252425026394748 -4.715695537426634 1.7132364510817433 -13.889418697413253 67.02933817165857 22.215153463407326 9.511591028949656 0.5664598224109089 1.297763775369173 71.74888791727669 16.677014933865348 -0.30655264391564974 -2.711562962272903 4.542225959829918 -0.11046670079792485 -1.579727668371734 0.009111386305754652 -0.0011442424119817538 -56.28133015981996 -0.00138558528150181 0.01137474344873179 -56.25358729322921 -38.72958397011909 -0.0425116453921766 0.01015506416903771 0.00011637393751334661 -0.035554405775886505 -0.04961634788027784 0.03988263101310779 0.04849286438572232 0.04646872383951314 -36.69069428553912 -0.013614043627718078 0.020986232115970116 0.04034095302776665 -0.04483380078369438 -0.0013062992840019005 -0.034564046501662254 -0.03282960039926982 0.025456117329446935 -19.802915213596233 0.0006125111059257551 -0.023886224532356795 -0.012824307409260745 -0.014542262459249798 0.005612245270315667 0.03840430310179816 -0.012497068804455726 -0.03208706409802599 24.037901017660364 -0.007957349469004444 -0.00023906819154220592 28.885808371649535 0.02486347413697553 -0.030009380060526596 28.890855152465765 -0.03221043467000754 -0.009432010228646048 5.334154709396474 1.3243234809826683 12.843883351925363 -67.50087163332029 30.119761480091917 -9.127563264682921 -7.820314179273089 -1.8908454630465483 -66.62139333089003 -9.510381687256457 0.5617516483896139 1.4112546775040673 -0.44670216828640136 0.09278564056305963 -8.120635648543741 0.012817691690200254 -0.004676181711021496 44.52727493685464 0.0014110313995970836 -0.030378046164787495 44.566289873185276 12.50509540967699 0.018324915178932918 -0.00037771702358142497 0.028761333036765712 -0.005677770636801414 0.030656374615603558 -0.0037256321620801917 -0.021056417736428957 -0.02509815297386487 11.091082190519868 0.004812410807271389 0.03658355422009648 -0.005740471991938217 -0.0024507312506505305 0.016935917608573655 -0.03174575881765546 0.021504656253818734 0.01470793882539449 4.782544790985111 -0.029948377783165288 0.01546980528782281 -0.026342582227582654 -0.002119843112771401 -0.02655688675834189 -0.006596406061733413 0.038849576373665456 0.022444419462608545 -5.585830743643125 0.038491169526749185 -0.02852045070476011 -6.763533481379435 -0.030761207890028855 0.004669469012693342 -6.750032442356734 0.047581760852378564 -0.019083800411144398 0.005021674241699352 0.04558746553206798 -0.008523309724974901 8.028243495289644 3.5358912001922698 -19.18439861904433 -0.028905926714737556 10.363122279502015 0.005812031584300256 -5.6574955478363 -15.670548882033263 3.2025179587589196 0.004332101270765252 0.026217255768374456 -0.021021930944427385 -0.009698513237957878 4.731659049631746 0.048075399456680296 12.42265323985478 -8.254031574808769 6.888871709074286 -0.01188915463996672 46.36986551127108 0.017192145905689758 -4.366674767355797 -14.745623384411758 -3.833112994621684 0.04406765072434332 0.023802536413316953 0.00842240120942459 0.007996369844570148 -10.778237842718987 -0.04558868419529379 
